<svg xmlns="http://www.w3.org/2000/svg" width="243.529" height="54" viewBox="0 0 243.529 54">
  <g id="logo_stargate" data-name="logo/stargate" transform="translate(-1976.62 -750.312)">
    <g id="Elipse_1" data-name="Elipse 1" transform="translate(1976.62 750.312)" fill="none" stroke="#cecccf" stroke-width="6">
      <circle cx="27" cy="27" r="27" stroke="none"/>
      <circle cx="27" cy="27" r="24" fill="none"/>
    </g>
    <g id="Grupo_1" data-name="Grupo 1" transform="translate(1978.62 750.812)">
      <ellipse id="Elipse_14" data-name="Elipse 14" cx="22.5" cy="22" rx="22.5" ry="22" transform="translate(2 3.501)" fill="#5c3b6b"/>
      <path id="Caminho_1" data-name="Caminho 1" d="M682.432,422.494c-7.3,5.437-11.835,18.116-11.835,18.116a103.163,103.163,0,0,1-.7-15.489c.173-2.887.659-5.737,1.366-6.566.313-.366,2.159.051,3.174.211a17.12,17.12,0,0,1,3.34.932A13.179,13.179,0,0,1,682.432,422.494Z" transform="translate(-645.908 -415.219)" fill="#5c3b6b"/>
      <path id="Caminho_12812" data-name="Caminho 12812" d="M16.3,4.658C9,10.095,3.371,22.231,3.371,22.231A61.656,61.656,0,0,1,.936,13.2C0,8.082-.485,1.941.7.549,1.015.183,3.509-.116,4.524.044A38.443,38.443,0,0,1,9.518,1.126,42.158,42.158,0,0,1,16.3,4.658Z" transform="translate(36.55 6.178) rotate(40)" fill="#715180"/>
      <path id="Caminho_12813" data-name="Caminho 12813" d="M12.121,3.932C4.821,9.369.286,22.048.286,22.048S-.849,2.845,1.4.2c.313-.366,1.7-.16,2.718,0a17.119,17.119,0,0,1,3.34.932A13.18,13.18,0,0,1,12.121,3.932Z" transform="translate(45.402 18.024) rotate(71)" fill="#5c3b6b"/>
      <path id="Caminho_12814" data-name="Caminho 12814" d="M16.3,4.658C9,10.095,3.371,22.231,3.371,22.231A61.656,61.656,0,0,1,.936,13.2C0,8.082-.485,1.941.7.549,1.015.183,3.509-.116,4.524.044A38.443,38.443,0,0,1,9.518,1.126,42.158,42.158,0,0,1,16.3,4.658Z" transform="matrix(-0.309, 0.951, -0.951, -0.309, 46.938, 29.312)" fill="#715180"/>
      <path id="Caminho_12815" data-name="Caminho 12815" d="M12.121,3.932C4.821,9.369.286,22.048.286,22.048S-.849,2.845,1.4.2c.313-.366,1.7-.16,2.718,0a17.119,17.119,0,0,1,3.34.932A13.18,13.18,0,0,1,12.121,3.932Z" transform="matrix(-0.788, 0.616, -0.616, -0.788, 38.783, 42.753)" fill="#5c3b6b"/>
      <path id="Caminho_12816" data-name="Caminho 12816" d="M16.3,4.658C9,10.095,3.371,22.231,3.371,22.231A61.656,61.656,0,0,1,.936,13.2C0,8.082-.485,1.941.7.549,1.015.183,3.509-.116,4.524.044A38.443,38.443,0,0,1,9.518,1.126,42.158,42.158,0,0,1,16.3,4.658Z" transform="translate(27.548 47.907) rotate(-178)" fill="#715180"/>
      <path id="Caminho_12817" data-name="Caminho 12817" d="M12.121,3.932C4.821,9.369.286,22.048.286,22.048S-.849,2.845,1.4.2c.313-.366,1.7-.16,2.718,0a17.119,17.119,0,0,1,3.34.932A13.18,13.18,0,0,1,12.121,3.932Z" transform="matrix(-0.819, -0.574, 0.574, -0.819, 12.524, 43.815)" fill="#5c3b6b"/>
      <path id="Caminho_12818" data-name="Caminho 12818" d="M16.335,4.05C9.034,9.486,3.371,22.231,3.371,22.231A61.656,61.656,0,0,1,.936,13.2C0,8.082-.485,1.941.7.549,1.015.183,3.509-.116,4.524.044a50.446,50.446,0,0,1,5.67.879A35.809,35.809,0,0,1,16.335,4.05Z" transform="translate(4.503 34.798) rotate(-106)" fill="#715180"/>
      <path id="Caminho_12819" data-name="Caminho 12819" d="M12.121,3.932C4.821,9.369.286,22.048.286,22.048S-.849,2.845,1.4.2c.313-.366,1.7-.16,2.718,0a17.119,17.119,0,0,1,3.34.932A13.18,13.18,0,0,1,12.121,3.932Z" transform="translate(3.417 19.677) rotate(-74)" fill="#5c3b6b"/>
      <path id="Caminho_12820" data-name="Caminho 12820" d="M16.335,4.05C9.034,9.486,3.371,22.231,3.371,22.231A61.656,61.656,0,0,1,.936,13.2C0,8.082-.485,1.941.7.549,1.015.183,3.509-.116,4.524.044a50.446,50.446,0,0,1,5.67.879A35.809,35.809,0,0,1,16.335,4.05Z" transform="translate(9.603 9.369) rotate(-35)" fill="#715180"/>
    </g>
    <g id="Elipse_2" data-name="Elipse 2" transform="translate(1979.62 753.312)" fill="none" stroke="#aaa" stroke-width="4">
      <circle cx="24" cy="24" r="24" stroke="none"/>
      <circle cx="24" cy="24" r="22" fill="none"/>
    </g>
    <g id="Elipse_15" data-name="Elipse 15" transform="translate(1979.62 753.312)" fill="none" stroke="#948d97" stroke-width="4" stroke-dasharray="1 6.55">
      <circle cx="24" cy="24" r="24" stroke="none"/>
      <circle cx="24" cy="24" r="22" fill="none"/>
    </g>
    <g id="Grupo_2" data-name="Grupo 2" transform="matrix(0.995, 0.105, -0.105, 0.995, 1978.422, 749.072)">
      <g id="triângulo" transform="matrix(0.999, 0.052, -0.052, 0.999, 31.446, 40.878)">
        <g id="Polígono_1" data-name="Polígono 1" transform="translate(0 3.918) rotate(-26)" fill="#e2b240" stroke-linecap="round" stroke-linejoin="round">
          <path d="M 7.206514358520508 7.496209144592285 L 1.731414556503296 7.496209144592285 C 1.46032452583313 7.496209144592285 1.21753454208374 7.356059074401855 1.081944584846497 7.12130880355835 C 0.9463645815849304 6.886559009552002 0.9463045597076416 6.606218814849854 1.081774592399597 6.371408939361572 L 3.819324493408203 1.62631893157959 C 3.954864501953125 1.391378879547119 4.197724342346191 1.251108884811401 4.468964576721191 1.251108884811401 C 4.740204811096191 1.251108884811401 4.983064651489258 1.391378879547119 5.11860466003418 1.62631893157959 L 7.856154441833496 6.371408939361572 C 7.991624355316162 6.606218814849854 7.991564750671387 6.886559009552002 7.855984687805176 7.12130880355835 C 7.720394611358643 7.356059074401855 7.477604389190674 7.496209144592285 7.206514358520508 7.496209144592285 Z" stroke="none"/>
          <path d="M 4.468964576721191 1.501109600067139 C 4.382134437561035 1.501109600067139 4.166114807128906 1.525479316711426 4.035864353179932 1.751249313354492 L 1.298314571380615 6.496339321136475 C 1.168134689331055 6.721979141235352 1.255034446716309 6.92112922668457 1.298434734344482 6.996269226074219 C 1.341834545135498 7.071419239044189 1.470914363861084 7.246209144592285 1.731414794921875 7.246209144592285 L 7.206514358520508 7.246209144592285 C 7.467014312744141 7.246209144592285 7.596094608306885 7.071419239044189 7.6394944190979 6.996269226074219 C 7.682894706726074 6.92112922668457 7.769794464111328 6.721979141235352 7.639614582061768 6.496339321136475 L 4.902064800262451 1.751259326934814 C 4.771804809570312 1.525479316711426 4.555794715881348 1.501109600067139 4.468964576721191 1.501109600067139 M 4.468964576721191 1.001109600067139 C 4.805851936340332 1.001109600067139 5.142739295959473 1.167869567871094 5.33515453338623 1.501389503479004 L 8.072704315185547 6.246479034423828 C 8.457324981689453 6.913149356842041 7.976174354553223 7.746209144592285 7.206514358520508 7.746209144592285 L 1.731414794921875 7.746209144592285 C 0.9617547988891602 7.746209144592285 0.4806041717529297 6.913149356842041 0.8652248382568359 6.246479034423828 L 3.602774620056152 1.501389503479004 C 3.795189380645752 1.167869567871094 4.132077217102051 1.001109600067139 4.468964576721191 1.001109600067139 Z" stroke="none" fill="#ada8af"/>
        </g>
        <path id="Caminho_12821" data-name="Caminho 12821" d="M4,3.173a3.956,3.956,0,0,0-.828-1.4A4.856,4.856,0,0,0,1.593.5,5.612,5.612,0,0,0,.252.016L-.061,4.468l.124.264.1.062.3.09.247-.071C1.651,4.412,4,3.173,4,3.173Z" transform="translate(4.067 4.851)" fill="#dca536"/>
      </g>
      <g id="triângulo-2" data-name="triângulo" transform="matrix(0.309, 0.951, -0.951, 0.309, 14.315, 33.27)">
        <g id="Polígono_1-2" data-name="Polígono 1" transform="translate(0 3.918) rotate(-26)" fill="#e2b240" stroke-linecap="round" stroke-linejoin="round">
          <path d="M 7.206514358520508 7.496209144592285 L 1.731414556503296 7.496209144592285 C 1.46032452583313 7.496209144592285 1.21753454208374 7.356059074401855 1.081944584846497 7.12130880355835 C 0.9463645815849304 6.886559009552002 0.9463045597076416 6.606218814849854 1.081774592399597 6.371408939361572 L 3.819324493408203 1.62631893157959 C 3.954864501953125 1.391378879547119 4.197724342346191 1.251108884811401 4.468964576721191 1.251108884811401 C 4.740204811096191 1.251108884811401 4.983064651489258 1.391378879547119 5.11860466003418 1.62631893157959 L 7.856154441833496 6.371408939361572 C 7.991624355316162 6.606218814849854 7.991564750671387 6.886559009552002 7.855984687805176 7.12130880355835 C 7.720394611358643 7.356059074401855 7.477604389190674 7.496209144592285 7.206514358520508 7.496209144592285 Z" stroke="none"/>
          <path d="M 4.468964576721191 1.501109600067139 C 4.382134437561035 1.501109600067139 4.166114807128906 1.525479316711426 4.035864353179932 1.751249313354492 L 1.298314571380615 6.496339321136475 C 1.168134689331055 6.721979141235352 1.255034446716309 6.92112922668457 1.298434734344482 6.996269226074219 C 1.341834545135498 7.071419239044189 1.470914363861084 7.246209144592285 1.731414794921875 7.246209144592285 L 7.206514358520508 7.246209144592285 C 7.467014312744141 7.246209144592285 7.596094608306885 7.071419239044189 7.6394944190979 6.996269226074219 C 7.682894706726074 6.92112922668457 7.769794464111328 6.721979141235352 7.639614582061768 6.496339321136475 L 4.902064800262451 1.751259326934814 C 4.771804809570312 1.525479316711426 4.555794715881348 1.501109600067139 4.468964576721191 1.501109600067139 M 4.468964576721191 1.001109600067139 C 4.805851936340332 1.001109600067139 5.142739295959473 1.167869567871094 5.33515453338623 1.501389503479004 L 8.072704315185547 6.246479034423828 C 8.457324981689453 6.913149356842041 7.976174354553223 7.746209144592285 7.206514358520508 7.746209144592285 L 1.731414794921875 7.746209144592285 C 0.9617547988891602 7.746209144592285 0.4806041717529297 6.913149356842041 0.8652248382568359 6.246479034423828 L 3.602774620056152 1.501389503479004 C 3.795189380645752 1.167869567871094 4.132077217102051 1.001109600067139 4.468964576721191 1.001109600067139 Z" stroke="none" fill="#ada8af"/>
        </g>
        <path id="Caminho_12821-2" data-name="Caminho 12821" d="M4,3.173a3.956,3.956,0,0,0-.828-1.4A4.856,4.856,0,0,0,1.593.5,5.612,5.612,0,0,0,.252.016L-.061,4.468l.124.264.1.062.3.09.247-.071C1.651,4.412,4,3.173,4,3.173Z" transform="translate(4.067 4.851)" fill="#dca536"/>
      </g>
      <g id="triângulo-3" data-name="triângulo" transform="translate(16.45 15.5) rotate(148)">
        <g id="Polígono_1-3" data-name="Polígono 1" transform="translate(0 3.918) rotate(-26)" fill="#e2b240" stroke-linecap="round" stroke-linejoin="round">
          <path d="M 7.206514358520508 7.496209144592285 L 1.731414556503296 7.496209144592285 C 1.46032452583313 7.496209144592285 1.21753454208374 7.356059074401855 1.081944584846497 7.12130880355835 C 0.9463645815849304 6.886559009552002 0.9463045597076416 6.606218814849854 1.081774592399597 6.371408939361572 L 3.819324493408203 1.62631893157959 C 3.954864501953125 1.391378879547119 4.197724342346191 1.251108884811401 4.468964576721191 1.251108884811401 C 4.740204811096191 1.251108884811401 4.983064651489258 1.391378879547119 5.11860466003418 1.62631893157959 L 7.856154441833496 6.371408939361572 C 7.991624355316162 6.606218814849854 7.991564750671387 6.886559009552002 7.855984687805176 7.12130880355835 C 7.720394611358643 7.356059074401855 7.477604389190674 7.496209144592285 7.206514358520508 7.496209144592285 Z" stroke="none"/>
          <path d="M 4.468964576721191 1.501109600067139 C 4.382134437561035 1.501109600067139 4.166114807128906 1.525479316711426 4.035864353179932 1.751249313354492 L 1.298314571380615 6.496339321136475 C 1.168134689331055 6.721979141235352 1.255034446716309 6.92112922668457 1.298434734344482 6.996269226074219 C 1.341834545135498 7.071419239044189 1.470914363861084 7.246209144592285 1.731414794921875 7.246209144592285 L 7.206514358520508 7.246209144592285 C 7.467014312744141 7.246209144592285 7.596094608306885 7.071419239044189 7.6394944190979 6.996269226074219 C 7.682894706726074 6.92112922668457 7.769794464111328 6.721979141235352 7.639614582061768 6.496339321136475 L 4.902064800262451 1.751259326934814 C 4.771804809570312 1.525479316711426 4.555794715881348 1.501109600067139 4.468964576721191 1.501109600067139 M 4.468964576721191 1.001109600067139 C 4.805851936340332 1.001109600067139 5.142739295959473 1.167869567871094 5.33515453338623 1.501389503479004 L 8.072704315185547 6.246479034423828 C 8.457324981689453 6.913149356842041 7.976174354553223 7.746209144592285 7.206514358520508 7.746209144592285 L 1.731414794921875 7.746209144592285 C 0.9617547988891602 7.746209144592285 0.4806041717529297 6.913149356842041 0.8652248382568359 6.246479034423828 L 3.602774620056152 1.501389503479004 C 3.795189380645752 1.167869567871094 4.132077217102051 1.001109600067139 4.468964576721191 1.001109600067139 Z" stroke="none" fill="#ada8af"/>
        </g>
        <path id="Caminho_12821-3" data-name="Caminho 12821" d="M4,3.173a3.956,3.956,0,0,0-.828-1.4A4.856,4.856,0,0,0,1.593.5,5.612,5.612,0,0,0,.252.016L-.061,4.468l.124.264.1.062.3.09.247-.071C1.651,4.412,4,3.173,4,3.173Z" transform="translate(4.067 4.851)" fill="#dca536"/>
      </g>
      <g id="triângulo-4" data-name="triângulo" transform="matrix(-0.755, -0.656, 0.656, -0.755, 33.956, 11.568)">
        <g id="Polígono_1-4" data-name="Polígono 1" transform="translate(0 3.918) rotate(-26)" fill="#e2b240" stroke-linecap="round" stroke-linejoin="round">
          <path d="M 7.206514358520508 7.496209144592285 L 1.731414556503296 7.496209144592285 C 1.46032452583313 7.496209144592285 1.21753454208374 7.356059074401855 1.081944584846497 7.12130880355835 C 0.9463645815849304 6.886559009552002 0.9463045597076416 6.606218814849854 1.081774592399597 6.371408939361572 L 3.819324493408203 1.62631893157959 C 3.954864501953125 1.391378879547119 4.197724342346191 1.251108884811401 4.468964576721191 1.251108884811401 C 4.740204811096191 1.251108884811401 4.983064651489258 1.391378879547119 5.11860466003418 1.62631893157959 L 7.856154441833496 6.371408939361572 C 7.991624355316162 6.606218814849854 7.991564750671387 6.886559009552002 7.855984687805176 7.12130880355835 C 7.720394611358643 7.356059074401855 7.477604389190674 7.496209144592285 7.206514358520508 7.496209144592285 Z" stroke="none"/>
          <path d="M 4.468964576721191 1.501109600067139 C 4.382134437561035 1.501109600067139 4.166114807128906 1.525479316711426 4.035864353179932 1.751249313354492 L 1.298314571380615 6.496339321136475 C 1.168134689331055 6.721979141235352 1.255034446716309 6.92112922668457 1.298434734344482 6.996269226074219 C 1.341834545135498 7.071419239044189 1.470914363861084 7.246209144592285 1.731414794921875 7.246209144592285 L 7.206514358520508 7.246209144592285 C 7.467014312744141 7.246209144592285 7.596094608306885 7.071419239044189 7.6394944190979 6.996269226074219 C 7.682894706726074 6.92112922668457 7.769794464111328 6.721979141235352 7.639614582061768 6.496339321136475 L 4.902064800262451 1.751259326934814 C 4.771804809570312 1.525479316711426 4.555794715881348 1.501109600067139 4.468964576721191 1.501109600067139 M 4.468964576721191 1.001109600067139 C 4.805851936340332 1.001109600067139 5.142739295959473 1.167869567871094 5.33515453338623 1.501389503479004 L 8.072704315185547 6.246479034423828 C 8.457324981689453 6.913149356842041 7.976174354553223 7.746209144592285 7.206514358520508 7.746209144592285 L 1.731414794921875 7.746209144592285 C 0.9617547988891602 7.746209144592285 0.4806041717529297 6.913149356842041 0.8652248382568359 6.246479034423828 L 3.602774620056152 1.501389503479004 C 3.795189380645752 1.167869567871094 4.132077217102051 1.001109600067139 4.468964576721191 1.001109600067139 Z" stroke="none" fill="#ada8af"/>
        </g>
        <path id="Caminho_12821-4" data-name="Caminho 12821" d="M4,3.173a3.956,3.956,0,0,0-.828-1.4A4.856,4.856,0,0,0,1.593.5,5.612,5.612,0,0,0,.252.016L-.061,4.468l.124.264.1.062.3.09.247-.071C1.651,4.412,4,3.173,4,3.173Z" transform="translate(4.067 4.851)" fill="#dca536"/>
      </g>
      <g id="triângulo-5" data-name="triângulo" transform="matrix(0.309, -0.951, 0.951, 0.309, 42.962, 27.406)">
        <g id="Polígono_1-5" data-name="Polígono 1" transform="translate(0 3.918) rotate(-26)" fill="#e2b240" stroke-linecap="round" stroke-linejoin="round">
          <path d="M 7.206514358520508 7.496209144592285 L 1.731414556503296 7.496209144592285 C 1.46032452583313 7.496209144592285 1.21753454208374 7.356059074401855 1.081944584846497 7.12130880355835 C 0.9463645815849304 6.886559009552002 0.9463045597076416 6.606218814849854 1.081774592399597 6.371408939361572 L 3.819324493408203 1.62631893157959 C 3.954864501953125 1.391378879547119 4.197724342346191 1.251108884811401 4.468964576721191 1.251108884811401 C 4.740204811096191 1.251108884811401 4.983064651489258 1.391378879547119 5.11860466003418 1.62631893157959 L 7.856154441833496 6.371408939361572 C 7.991624355316162 6.606218814849854 7.991564750671387 6.886559009552002 7.855984687805176 7.12130880355835 C 7.720394611358643 7.356059074401855 7.477604389190674 7.496209144592285 7.206514358520508 7.496209144592285 Z" stroke="none"/>
          <path d="M 4.468964576721191 1.501109600067139 C 4.382134437561035 1.501109600067139 4.166114807128906 1.525479316711426 4.035864353179932 1.751249313354492 L 1.298314571380615 6.496339321136475 C 1.168134689331055 6.721979141235352 1.255034446716309 6.92112922668457 1.298434734344482 6.996269226074219 C 1.341834545135498 7.071419239044189 1.470914363861084 7.246209144592285 1.731414794921875 7.246209144592285 L 7.206514358520508 7.246209144592285 C 7.467014312744141 7.246209144592285 7.596094608306885 7.071419239044189 7.6394944190979 6.996269226074219 C 7.682894706726074 6.92112922668457 7.769794464111328 6.721979141235352 7.639614582061768 6.496339321136475 L 4.902064800262451 1.751259326934814 C 4.771804809570312 1.525479316711426 4.555794715881348 1.501109600067139 4.468964576721191 1.501109600067139 M 4.468964576721191 1.001109600067139 C 4.805851936340332 1.001109600067139 5.142739295959473 1.167869567871094 5.33515453338623 1.501389503479004 L 8.072704315185547 6.246479034423828 C 8.457324981689453 6.913149356842041 7.976174354553223 7.746209144592285 7.206514358520508 7.746209144592285 L 1.731414794921875 7.746209144592285 C 0.9617547988891602 7.746209144592285 0.4806041717529297 6.913149356842041 0.8652248382568359 6.246479034423828 L 3.602774620056152 1.501389503479004 C 3.795189380645752 1.167869567871094 4.132077217102051 1.001109600067139 4.468964576721191 1.001109600067139 Z" stroke="none" fill="#ada8af"/>
        </g>
        <path id="Caminho_12821-5" data-name="Caminho 12821" d="M4,3.173a3.956,3.956,0,0,0-.828-1.4A4.856,4.856,0,0,0,1.593.5,5.612,5.612,0,0,0,.252.016L-.061,4.468l.124.264.1.062.3.09.247-.071C1.651,4.412,4,3.173,4,3.173Z" transform="translate(4.067 4.851)" fill="#dca536"/>
      </g>
    </g>
    <path id="Caminho_12822" data-name="Caminho 12822" d="M1.723-.967V-6.592A10.809,10.809,0,0,0,5.045-4.667a10.679,10.679,0,0,0,3.621.642,8.03,8.03,0,0,0,1.872-.193,4.385,4.385,0,0,0,1.336-.536,2.338,2.338,0,0,0,.8-.809,2.017,2.017,0,0,0,.264-1.011,2.185,2.185,0,0,0-.422-1.318,4.54,4.54,0,0,0-1.151-1.072,12.031,12.031,0,0,0-1.731-.949q-1-.457-2.162-.932a11.035,11.035,0,0,1-4.4-3.006,6.562,6.562,0,0,1-1.45-4.289,6.831,6.831,0,0,1,.791-3.384,6.718,6.718,0,0,1,2.153-2.329A9.655,9.655,0,0,1,7.717-25.2a16.213,16.213,0,0,1,3.8-.431A22.837,22.837,0,0,1,15-25.392a13.722,13.722,0,0,1,2.8.729v5.256a8.478,8.478,0,0,0-1.38-.773,10.933,10.933,0,0,0-1.538-.554,11.732,11.732,0,0,0-1.573-.325,11.134,11.134,0,0,0-1.485-.105,7.746,7.746,0,0,0-1.758.185,4.509,4.509,0,0,0-1.336.519,2.58,2.58,0,0,0-.844.8,1.9,1.9,0,0,0-.3,1.046,2,2,0,0,0,.334,1.134,3.831,3.831,0,0,0,.949.949,10.073,10.073,0,0,0,1.494.879q.879.431,1.986.888a22.134,22.134,0,0,1,2.716,1.345,9.655,9.655,0,0,1,2.065,1.608,6.266,6.266,0,0,1,1.318,2.048,7.236,7.236,0,0,1,.457,2.681,7.18,7.18,0,0,1-.8,3.542,6.493,6.493,0,0,1-2.171,2.32A9.414,9.414,0,0,1,12.753.053,18.438,18.438,0,0,1,8.912.439,21.357,21.357,0,0,1,4.966.088,11.913,11.913,0,0,1,1.723-.967Zm39.765-23.59v4.5H32.593V0H26.476V-20.057H17.582v-4.5Zm14.5,0L66.892,0H60.314L58.291-4.852h-11L45.46,0H38.978L48.9-24.557ZM56.5-9.141l-3.98-9.545L48.915-9.141Zm9.62-15.416H77.091a8.206,8.206,0,0,1,5.8,2.064,6.559,6.559,0,0,1,2.232,5q0,4.058-4.219,6.008,1.849.841,3.515,4.53T87.637,0H80.925q-.6-1.213-2.095-4.623A14.254,14.254,0,0,0,76.273-9,3.337,3.337,0,0,0,74-9.967H72.239V0H66.122Zm6.117,4.5v5.59h3.234a3.8,3.8,0,0,0,2.452-.729,2.521,2.521,0,0,0,.905-2.083q0-2.777-3.5-2.777Zm38.078-2.795v5.361a21.006,21.006,0,0,0-9.176-2.268q-4.324,0-6.662,2.18a7.261,7.261,0,0,0-2.338,5.555,6.569,6.569,0,0,0,2.338,5.238,9.125,9.125,0,0,0,6.152,2,10.191,10.191,0,0,0,4.061-.879V-8.525h-3.551v-4.5h9.686V-2.988a10.677,10.677,0,0,1-4.438,2.382,19.853,19.853,0,0,1-5.9.923A15.6,15.6,0,0,1,89.953-3.226a11.356,11.356,0,0,1-4.122-9.009,11.435,11.435,0,0,1,4.122-9.114,15.857,15.857,0,0,1,10.679-3.524A22.375,22.375,0,0,1,110.317-22.852Zm16.606-1.705L137.83,0h-6.578l-2.023-4.852h-11L116.4,0h-6.482l9.919-24.557Zm.517,15.416-3.98-9.545-3.607,9.545Zm31.786-15.416v4.5h-8.895V0h-6.117V-20.057H135.32v-4.5ZM177.529-4.5V0H159.423V-24.557h17.859v4.5H165.54v5.15h11.2v4.5h-11.2V-4.5Z" transform="translate(2042.62 790.312)" fill="#5c3b6b"/>
  </g>
</svg>
